<svg height="512pt" viewBox="0 0 512 512" width="512pt" xmlns="http://www.w3.org/2000/svg"><path d="m512 0v96c0 17.679688-14.320312 32-32 32h-448c-17.679688 0-32-14.320312-32-32v-96zm0 0" fill="#77959e"/><path d="m48 32h416v96h-416zm0 0" fill="#62808c"/><path d="m400 512h-288c-17.679688 0-32-14.320312-32-32v-432h352v432c0 17.679688-14.320312 32-32 32zm0 0" fill="#a477bd"/><path d="m80 48h352v48h-352zm0 0" fill="#9562b7"/><path d="m464 32c0 17.679688-14.320312 32-32 32h-352c-17.679688 0-32-14.320312-32-32zm0 0" fill="#e4edfb"/><g fill="#fff"><path d="m336 112h32v64h-32zm0 0"/><path d="m336 208h32v64h-32zm0 0"/><path d="m336 304h32v64h-32zm0 0"/><path d="m336 400h32v64h-32zm0 0"/></g><path d="m272 320c0 35.347656-28.652344 64-64 64s-64-28.652344-64-64 28.652344-64 64-64 64 28.652344 64 64zm0 0" fill="#e76e54"/><path d="m272 384c0 35.347656-28.652344 64-64 64s-64-28.652344-64-64 28.652344-64 64-64 64 28.652344 64 64zm0 0" fill="#ffcb5a"/></svg>